<svg width="311" height="286" viewBox="0 0 311 286" fill="none" xmlns="http://www.w3.org/2000/svg">
<g id="Group 1">
<path id="Ellipse" opacity="0.5" d="M88.0969 222.903C72.2936 207.1 61.5314 186.965 57.1713 165.045C52.8111 143.125 55.0489 120.405 63.6016 99.7568C72.1543 79.1087 86.6378 61.4605 105.221 49.0439C123.803 36.6273 145.651 30 168 30C190.349 30 212.197 36.6273 230.779 49.0439C249.362 61.4605 263.846 79.1087 272.398 99.7568C280.951 120.405 283.189 143.125 278.829 165.045C274.469 186.965 263.706 207.1 247.903 222.903" stroke="#4E4E61" stroke-width="3.03438" stroke-miterlimit="4.80973" stroke-linecap="round" stroke-linejoin="round" stroke-dasharray="0 0.1 0 15"/>
<g id="Ellipse_2" filter="url(#filter0_b_5_21)">
<mask id="path-2-inside-1_5_21" fill="white">
<path d="M70.4228 240.577C68.4682 242.532 65.2921 242.538 63.4071 240.516C45.3042 221.1 32.9395 196.999 27.7477 170.898C22.23 143.159 25.0619 114.406 35.8852 88.2763C46.7086 62.1464 65.0372 39.8129 88.5535 24.0998C112.07 8.38681 139.717 1.2924e-06 168 0C196.283 -1.2924e-06 223.93 8.3868 247.447 24.0998C270.963 39.8129 289.291 62.1464 300.115 88.2763C310.938 114.406 313.77 143.159 308.252 170.898C303.061 196.999 290.696 221.099 272.593 240.516C270.708 242.538 267.532 242.532 265.577 240.577V240.577C263.623 238.623 263.63 235.46 265.51 233.433C282.216 215.42 293.629 193.104 298.435 168.945C303.566 143.148 300.932 116.408 290.867 92.1069C280.801 67.8062 263.755 47.036 241.885 32.4228C220.015 17.8097 194.303 10.01 168 10.01C141.697 10.01 115.985 17.8097 94.1147 32.4229C72.2446 47.036 55.199 67.8062 45.1333 92.1069C35.0676 116.408 32.4339 143.148 37.5654 168.945C42.3709 193.104 53.7843 215.42 70.4901 233.433C72.3698 235.46 72.3774 238.623 70.4228 240.577V240.577Z"/>
</mask>
<path d="M70.4228 240.577C68.4682 242.532 65.2921 242.538 63.4071 240.516C45.3042 221.1 32.9395 196.999 27.7477 170.898C22.23 143.159 25.0619 114.406 35.8852 88.2763C46.7086 62.1464 65.0372 39.8129 88.5535 24.0998C112.07 8.38681 139.717 1.2924e-06 168 0C196.283 -1.2924e-06 223.93 8.3868 247.447 24.0998C270.963 39.8129 289.291 62.1464 300.115 88.2763C310.938 114.406 313.77 143.159 308.252 170.898C303.061 196.999 290.696 221.099 272.593 240.516C270.708 242.538 267.532 242.532 265.577 240.577V240.577C263.623 238.623 263.63 235.46 265.51 233.433C282.216 215.42 293.629 193.104 298.435 168.945C303.566 143.148 300.932 116.408 290.867 92.1069C280.801 67.8062 263.755 47.036 241.885 32.4228C220.015 17.8097 194.303 10.01 168 10.01C141.697 10.01 115.985 17.8097 94.1147 32.4229C72.2446 47.036 55.199 67.8062 45.1333 92.1069C35.0676 116.408 32.4339 143.148 37.5654 168.945C42.3709 193.104 53.7843 215.42 70.4901 233.433C72.3698 235.46 72.3774 238.623 70.4228 240.577V240.577Z" fill="#4E4E61" fill-opacity="0.2"/>
<path d="M70.4228 240.577C68.4682 242.532 65.2921 242.538 63.4071 240.516C45.3042 221.1 32.9395 196.999 27.7477 170.898C22.23 143.159 25.0619 114.406 35.8852 88.2763C46.7086 62.1464 65.0372 39.8129 88.5535 24.0998C112.07 8.38681 139.717 1.2924e-06 168 0C196.283 -1.2924e-06 223.93 8.3868 247.447 24.0998C270.963 39.8129 289.291 62.1464 300.115 88.2763C310.938 114.406 313.77 143.159 308.252 170.898C303.061 196.999 290.696 221.099 272.593 240.516C270.708 242.538 267.532 242.532 265.577 240.577V240.577C263.623 238.623 263.63 235.46 265.51 233.433C282.216 215.42 293.629 193.104 298.435 168.945C303.566 143.148 300.932 116.408 290.867 92.1069C280.801 67.8062 263.755 47.036 241.885 32.4228C220.015 17.8097 194.303 10.01 168 10.01C141.697 10.01 115.985 17.8097 94.1147 32.4229C72.2446 47.036 55.199 67.8062 45.1333 92.1069C35.0676 116.408 32.4339 143.148 37.5654 168.945C42.3709 193.104 53.7843 215.42 70.4901 233.433C72.3698 235.46 72.3774 238.623 70.4228 240.577V240.577Z" stroke="url(#paint0_linear_5_21)" stroke-opacity="0.15" stroke-width="2" mask="url(#path-2-inside-1_5_21)"/>
</g>
<g id="Ellipse_3" filter="url(#filter1_d_5_21)">
<mask id="path-3-inside-2_5_21" fill="white">
<path d="M70.4228 240.577C68.4682 242.532 65.2916 242.537 63.4066 240.515C39.7114 215.102 26.0386 181.874 25.0567 147.028C24.0748 112.181 35.8549 78.2367 58.0814 51.5291C59.8496 49.4045 63.0215 49.2308 65.083 51.0723V51.0723C67.1445 52.9137 67.3145 56.0724 65.5519 58.2017C45.026 82.9984 34.1529 114.456 35.0628 146.746C35.9726 179.036 48.5998 209.831 70.4895 233.433C72.3692 235.459 72.3774 238.623 70.4228 240.577V240.577Z"/>
</mask>
<path d="M70.4228 240.577C68.4682 242.532 65.2916 242.537 63.4066 240.515C39.7114 215.102 26.0386 181.874 25.0567 147.028C24.0748 112.181 35.8549 78.2367 58.0814 51.5291C59.8496 49.4045 63.0215 49.2308 65.083 51.0723V51.0723C67.1445 52.9137 67.3145 56.0724 65.5519 58.2017C45.026 82.9984 34.1529 114.456 35.0628 146.746C35.9726 179.036 48.5998 209.831 70.4895 233.433C72.3692 235.459 72.3774 238.623 70.4228 240.577V240.577Z" fill="#FF7966"/>
<path d="M70.4228 240.577C68.4682 242.532 65.2916 242.537 63.4066 240.515C39.7114 215.102 26.0386 181.874 25.0567 147.028C24.0748 112.181 35.8549 78.2367 58.0814 51.5291C59.8496 49.4045 63.0215 49.2308 65.083 51.0723V51.0723C67.1445 52.9137 67.3145 56.0724 65.5519 58.2017C45.026 82.9984 34.1529 114.456 35.0628 146.746C35.9726 179.036 48.5998 209.831 70.4895 233.433C72.3692 235.459 72.3774 238.623 70.4228 240.577V240.577Z" fill="url(#paint1_radial_5_21)" fill-opacity="0.5"/>
<path d="M70.4228 240.577C68.4682 242.532 65.2916 242.537 63.4066 240.515C39.7114 215.102 26.0386 181.874 25.0567 147.028C24.0748 112.181 35.8549 78.2367 58.0814 51.5291C59.8496 49.4045 63.0215 49.2308 65.083 51.0723V51.0723C67.1445 52.9137 67.3145 56.0724 65.5519 58.2017C45.026 82.9984 34.1529 114.456 35.0628 146.746C35.9726 179.036 48.5998 209.831 70.4895 233.433C72.3692 235.459 72.3774 238.623 70.4228 240.577V240.577Z" stroke="url(#paint2_linear_5_21)" stroke-opacity="0.5" stroke-width="2" mask="url(#path-3-inside-2_5_21)"/>
</g>
</g>
<defs>
<filter id="filter0_b_5_21" x="14.9999" y="-10" width="306" height="262.038" filterUnits="userSpaceOnUse" color-interpolation-filters="sRGB">
<feFlood flood-opacity="0" result="BackgroundImageFix"/>
<feGaussianBlur in="BackgroundImageFix" stdDeviation="5"/>
<feComposite in2="SourceAlpha" operator="in" result="effect1_backgroundBlur_5_21"/>
<feBlend mode="normal" in="SourceGraphic" in2="effect1_backgroundBlur_5_21" result="shape"/>
</filter>
<filter id="filter1_d_5_21" x="-6.10352e-05" y="24.804" width="96.8942" height="242.233" filterUnits="userSpaceOnUse" color-interpolation-filters="sRGB">
<feFlood flood-opacity="0" result="BackgroundImageFix"/>
<feColorMatrix in="SourceAlpha" type="matrix" values="0 0 0 0 0 0 0 0 0 0 0 0 0 0 0 0 0 0 127 0" result="hardAlpha"/>
<feOffset/>
<feGaussianBlur stdDeviation="12.5"/>
<feComposite in2="hardAlpha" operator="out"/>
<feColorMatrix type="matrix" values="0 0 0 0 1 0 0 0 0 0.47451 0 0 0 0 0.4 0 0 0 0.5 0"/>
<feBlend mode="normal" in2="BackgroundImageFix" result="effect1_dropShadow_5_21"/>
<feBlend mode="normal" in="SourceGraphic" in2="effect1_dropShadow_5_21" result="shape"/>
</filter>
<linearGradient id="paint0_linear_5_21" x1="311" y1="0" x2="84.188" y2="105.06" gradientUnits="userSpaceOnUse">
<stop stop-color="#CFCFFC"/>
<stop offset="1" stop-color="#CFCFFC" stop-opacity="0"/>
</linearGradient>
<radialGradient id="paint1_radial_5_21" cx="0" cy="0" r="1" gradientUnits="userSpaceOnUse" gradientTransform="translate(168 286) rotate(-90) scale(286)">
<stop offset="0.432536" stop-color="white" stop-opacity="0"/>
<stop offset="1" stop-color="#FF7F37"/>
</radialGradient>
<linearGradient id="paint2_linear_5_21" x1="311" y1="0" x2="168" y2="286" gradientUnits="userSpaceOnUse">
<stop stop-color="#FFD2CC"/>
<stop offset="1" stop-color="#FFD2CC" stop-opacity="0"/>
</linearGradient>
</defs>
</svg>
