<svg width="336" height="311" viewBox="0 0 336 311" fill="none" xmlns="http://www.w3.org/2000/svg">
<g id="Group 1">
<path id="Ellipse" opacity="0.5" d="M88.0969 247.903C72.2936 232.1 61.5314 211.965 57.1713 190.045C52.8111 168.125 55.0489 145.405 63.6016 124.757C72.1543 104.109 86.6378 86.4605 105.221 74.0439C123.803 61.6273 145.651 55 168 55C190.349 55 212.197 61.6273 230.779 74.0439C249.362 86.4605 263.846 104.109 272.398 124.757C280.951 145.405 283.189 168.125 278.829 190.045C274.469 211.965 263.706 232.1 247.903 247.903" stroke="#4E4E61" stroke-width="3.03438" stroke-miterlimit="4.80973" stroke-linecap="round" stroke-linejoin="round" stroke-dasharray="0 0.1 0 15"/>
<g id="Ellipse_2" filter="url(#filter0_b_5_21)">
<mask id="path-2-inside-1_5_21" fill="white">
<path d="M70.4228 265.577C68.4682 267.532 65.2921 267.538 63.4071 265.516C45.3042 246.1 32.9395 221.999 27.7477 195.898C22.23 168.159 25.0619 139.406 35.8852 113.276C46.7086 87.1464 65.0372 64.8129 88.5535 49.0998C112.07 33.3868 139.717 25 168 25C196.283 25 223.93 33.3868 247.447 49.0998C270.963 64.8129 289.291 87.1464 300.115 113.276C310.938 139.406 313.77 168.159 308.252 195.898C303.061 221.999 290.696 246.099 272.593 265.516C270.708 267.538 267.532 267.532 265.577 265.577V265.577C263.623 263.623 263.63 260.46 265.51 258.433C282.216 240.42 293.629 218.104 298.435 193.945C303.566 168.148 300.932 141.408 290.867 117.107C280.801 92.8062 263.755 72.036 241.885 57.4228C220.015 42.8097 194.303 35.01 168 35.01C141.697 35.01 115.985 42.8097 94.1147 57.4229C72.2446 72.036 55.199 92.8062 45.1333 117.107C35.0676 141.408 32.4339 168.148 37.5654 193.945C42.3709 218.104 53.7843 240.42 70.4901 258.433C72.3698 260.46 72.3774 263.623 70.4228 265.577V265.577Z"/>
</mask>
<path d="M70.4228 265.577C68.4682 267.532 65.2921 267.538 63.4071 265.516C45.3042 246.1 32.9395 221.999 27.7477 195.898C22.23 168.159 25.0619 139.406 35.8852 113.276C46.7086 87.1464 65.0372 64.8129 88.5535 49.0998C112.07 33.3868 139.717 25 168 25C196.283 25 223.93 33.3868 247.447 49.0998C270.963 64.8129 289.291 87.1464 300.115 113.276C310.938 139.406 313.77 168.159 308.252 195.898C303.061 221.999 290.696 246.099 272.593 265.516C270.708 267.538 267.532 267.532 265.577 265.577V265.577C263.623 263.623 263.63 260.46 265.51 258.433C282.216 240.42 293.629 218.104 298.435 193.945C303.566 168.148 300.932 141.408 290.867 117.107C280.801 92.8062 263.755 72.036 241.885 57.4228C220.015 42.8097 194.303 35.01 168 35.01C141.697 35.01 115.985 42.8097 94.1147 57.4229C72.2446 72.036 55.199 92.8062 45.1333 117.107C35.0676 141.408 32.4339 168.148 37.5654 193.945C42.3709 218.104 53.7843 240.42 70.4901 258.433C72.3698 260.46 72.3774 263.623 70.4228 265.577V265.577Z" fill="#4E4E61" fill-opacity="0.2"/>
<path d="M70.4228 265.577C68.4682 267.532 65.2921 267.538 63.4071 265.516C45.3042 246.1 32.9395 221.999 27.7477 195.898C22.23 168.159 25.0619 139.406 35.8852 113.276C46.7086 87.1464 65.0372 64.8129 88.5535 49.0998C112.07 33.3868 139.717 25 168 25C196.283 25 223.93 33.3868 247.447 49.0998C270.963 64.8129 289.291 87.1464 300.115 113.276C310.938 139.406 313.77 168.159 308.252 195.898C303.061 221.999 290.696 246.099 272.593 265.516C270.708 267.538 267.532 267.532 265.577 265.577V265.577C263.623 263.623 263.63 260.46 265.51 258.433C282.216 240.42 293.629 218.104 298.435 193.945C303.566 168.148 300.932 141.408 290.867 117.107C280.801 92.8062 263.755 72.036 241.885 57.4228C220.015 42.8097 194.303 35.01 168 35.01C141.697 35.01 115.985 42.8097 94.1147 57.4229C72.2446 72.036 55.199 92.8062 45.1333 117.107C35.0676 141.408 32.4339 168.148 37.5654 193.945C42.3709 218.104 53.7843 240.42 70.4901 258.433C72.3698 260.46 72.3774 263.623 70.4228 265.577V265.577Z" stroke="url(#paint0_linear_5_21)" stroke-opacity="0.15" stroke-width="2" mask="url(#path-2-inside-1_5_21)"/>
</g>
<g id="Ellipse_3" filter="url(#filter1_d_5_21)">
<mask id="path-3-inside-2_5_21" fill="white">
<path d="M70.4228 265.577C68.4682 267.532 65.2921 267.538 63.4072 265.516C47.9576 248.945 36.6491 228.921 30.4442 207.082C23.7829 183.637 23.2248 158.877 28.823 135.155C34.4212 111.434 45.9898 89.5362 62.4304 71.5424C78.871 53.5487 99.638 40.0558 122.76 32.3449C145.881 24.6339 170.59 22.9608 194.54 27.4845C218.49 32.0081 240.887 42.5783 259.603 58.1915C278.319 73.8047 292.734 93.9427 301.479 116.693C309.625 137.885 312.599 160.689 310.188 183.216C309.894 185.964 307.35 187.866 304.614 187.476V187.476C301.877 187.086 299.985 184.551 300.272 181.802C302.446 160.965 299.669 139.884 292.135 120.285C284.003 99.1267 270.597 80.3984 253.191 65.8781C235.785 51.3578 214.956 41.5275 192.682 37.3205C170.409 33.1136 147.43 34.6695 125.927 41.8407C104.423 49.0119 85.1101 61.5603 69.8203 78.2945C54.5305 95.0286 43.7717 115.393 38.5654 137.455C33.3591 159.516 33.8781 182.542 40.0731 204.346C45.8117 224.544 56.2441 243.072 70.49 258.433C72.3697 260.46 72.3774 263.623 70.4228 265.577V265.577Z"/>
</mask>
<path d="M70.4228 265.577C68.4682 267.532 65.2921 267.538 63.4072 265.516C47.9576 248.945 36.6491 228.921 30.4442 207.082C23.7829 183.637 23.2248 158.877 28.823 135.155C34.4212 111.434 45.9898 89.5362 62.4304 71.5424C78.871 53.5487 99.638 40.0558 122.76 32.3449C145.881 24.6339 170.59 22.9608 194.54 27.4845C218.49 32.0081 240.887 42.5783 259.603 58.1915C278.319 73.8047 292.734 93.9427 301.479 116.693C309.625 137.885 312.599 160.689 310.188 183.216C309.894 185.964 307.35 187.866 304.614 187.476V187.476C301.877 187.086 299.985 184.551 300.272 181.802C302.446 160.965 299.669 139.884 292.135 120.285C284.003 99.1267 270.597 80.3984 253.191 65.8781C235.785 51.3578 214.956 41.5275 192.682 37.3205C170.409 33.1136 147.43 34.6695 125.927 41.8407C104.423 49.0119 85.1101 61.5603 69.8203 78.2945C54.5305 95.0286 43.7717 115.393 38.5654 137.455C33.3591 159.516 33.8781 182.542 40.0731 204.346C45.8117 224.544 56.2441 243.072 70.49 258.433C72.3697 260.46 72.3774 263.623 70.4228 265.577V265.577Z" fill="#FF7966"/>
<path d="M70.4228 265.577C68.4682 267.532 65.2921 267.538 63.4072 265.516C47.9576 248.945 36.6491 228.921 30.4442 207.082C23.7829 183.637 23.2248 158.877 28.823 135.155C34.4212 111.434 45.9898 89.5362 62.4304 71.5424C78.871 53.5487 99.638 40.0558 122.76 32.3449C145.881 24.6339 170.59 22.9608 194.54 27.4845C218.49 32.0081 240.887 42.5783 259.603 58.1915C278.319 73.8047 292.734 93.9427 301.479 116.693C309.625 137.885 312.599 160.689 310.188 183.216C309.894 185.964 307.35 187.866 304.614 187.476V187.476C301.877 187.086 299.985 184.551 300.272 181.802C302.446 160.965 299.669 139.884 292.135 120.285C284.003 99.1267 270.597 80.3984 253.191 65.8781C235.785 51.3578 214.956 41.5275 192.682 37.3205C170.409 33.1136 147.43 34.6695 125.927 41.8407C104.423 49.0119 85.1101 61.5603 69.8203 78.2945C54.5305 95.0286 43.7717 115.393 38.5654 137.455C33.3591 159.516 33.8781 182.542 40.0731 204.346C45.8117 224.544 56.2441 243.072 70.49 258.433C72.3697 260.46 72.3774 263.623 70.4228 265.577V265.577Z" fill="url(#paint1_radial_5_21)" fill-opacity="0.5"/>
<path d="M70.4228 265.577C68.4682 267.532 65.2921 267.538 63.4072 265.516C47.9576 248.945 36.6491 228.921 30.4442 207.082C23.7829 183.637 23.2248 158.877 28.823 135.155C34.4212 111.434 45.9898 89.5362 62.4304 71.5424C78.871 53.5487 99.638 40.0558 122.76 32.3449C145.881 24.6339 170.59 22.9608 194.54 27.4845C218.49 32.0081 240.887 42.5783 259.603 58.1915C278.319 73.8047 292.734 93.9427 301.479 116.693C309.625 137.885 312.599 160.689 310.188 183.216C309.894 185.964 307.35 187.866 304.614 187.476V187.476C301.877 187.086 299.985 184.551 300.272 181.802C302.446 160.965 299.669 139.884 292.135 120.285C284.003 99.1267 270.597 80.3984 253.191 65.8781C235.785 51.3578 214.956 41.5275 192.682 37.3205C170.409 33.1136 147.43 34.6695 125.927 41.8407C104.423 49.0119 85.1101 61.5603 69.8203 78.2945C54.5305 95.0286 43.7717 115.393 38.5654 137.455C33.3591 159.516 33.8781 182.542 40.0731 204.346C45.8117 224.544 56.2441 243.072 70.49 258.433C72.3697 260.46 72.3774 263.623 70.4228 265.577V265.577Z" stroke="url(#paint2_linear_5_21)" stroke-opacity="0.5" stroke-width="2" mask="url(#path-3-inside-2_5_21)"/>
</g>
</g>
<defs>
<filter id="filter0_b_5_21" x="14.9999" y="15" width="306" height="262.038" filterUnits="userSpaceOnUse" color-interpolation-filters="sRGB">
<feFlood flood-opacity="0" result="BackgroundImageFix"/>
<feGaussianBlur in="BackgroundImageFix" stdDeviation="5"/>
<feComposite in2="SourceAlpha" operator="in" result="effect1_backgroundBlur_5_21"/>
<feBlend mode="normal" in="SourceGraphic" in2="effect1_backgroundBlur_5_21" result="shape"/>
</filter>
<filter id="filter1_d_5_21" x="0" y="-1.52588e-05" width="336" height="292.038" filterUnits="userSpaceOnUse" color-interpolation-filters="sRGB">
<feFlood flood-opacity="0" result="BackgroundImageFix"/>
<feColorMatrix in="SourceAlpha" type="matrix" values="0 0 0 0 0 0 0 0 0 0 0 0 0 0 0 0 0 0 127 0" result="hardAlpha"/>
<feOffset/>
<feGaussianBlur stdDeviation="12.5"/>
<feComposite in2="hardAlpha" operator="out"/>
<feColorMatrix type="matrix" values="0 0 0 0 1 0 0 0 0 0.47451 0 0 0 0 0.4 0 0 0 0.5 0"/>
<feBlend mode="normal" in2="BackgroundImageFix" result="effect1_dropShadow_5_21"/>
<feBlend mode="normal" in="SourceGraphic" in2="effect1_dropShadow_5_21" result="shape"/>
</filter>
<linearGradient id="paint0_linear_5_21" x1="311" y1="25" x2="84.188" y2="130.06" gradientUnits="userSpaceOnUse">
<stop stop-color="#CFCFFC"/>
<stop offset="1" stop-color="#CFCFFC" stop-opacity="0"/>
</linearGradient>
<radialGradient id="paint1_radial_5_21" cx="0" cy="0" r="1" gradientUnits="userSpaceOnUse" gradientTransform="translate(168 311) rotate(-90) scale(286)">
<stop offset="0.432536" stop-color="white" stop-opacity="0"/>
<stop offset="1" stop-color="#FF7F37"/>
</radialGradient>
<linearGradient id="paint2_linear_5_21" x1="311" y1="25" x2="168" y2="311" gradientUnits="userSpaceOnUse">
<stop stop-color="#FFD2CC"/>
<stop offset="1" stop-color="#FFD2CC" stop-opacity="0"/>
</linearGradient>
</defs>
</svg>
